# File created by Blade
# Date/Time:  Mon Sep 22 17:38:34 2014
# Frame Rate: 120.000 fps
#------------------------------------------------------
:FULLY-SPECIFIED
:DEGREES
983
root 1.313778 37.384488 4.930905 -12.982065 -13.360044 5.766322
RightUpLeg 13.353143 -0.549933 0.022264
RightLeg 3.882791 -0.000000 -0.000000
RightFoot -13.984908 -14.198176 10.578042
RightToeBase 13.633200 -0.000000 -0.000000
LeftUpLeg -30.224322 8.747552 -3.393403
LeftLeg 53.979396 -0.000000 -0.000000
LeftFoot 9.993629 27.378379 -31.015119
LeftToeBase 0.071536 -0.000000 -0.000000
Spine 19.522561 -4.784432 -3.452973
RightShoulder 2.627698 -28.414908 -10.559458
RightArm 22.592565 -20.389253 59.297255
RightForeArm 4.495056 -0.000000 44.744390
RightHand -0.463482 -0.000000 -1.949220
RightHandThumb1 -24.326973 -0.000000 -32.862282
LeftShoulder -17.926987 28.829902 3.922276
LeftArm 58.461176 -38.298185 -62.131849
LeftForeArm 38.816946 -0.000000 50.176968
LeftHand -17.642786 -0.000000 -22.171533
LeftHandThumb1 -26.253704 0.000000 33.147579
Head 18.663709 24.257668 -4.021949
984
root 1.313008 37.384306 4.935749 -12.947499 -13.370324 5.770218
RightUpLeg 13.347864 -0.550714 0.018326
RightLeg 3.830404 -0.000000 -0.000000
RightFoot -13.979245 -14.186358 10.477436
RightToeBase 13.749594 -0.000000 -0.000000
LeftUpLeg -30.223926 8.671536 -3.383211
LeftLeg 54.295469 -0.000000 -0.000000
LeftFoot 10.261684 27.244054 -30.819720
LeftToeBase -0.245499 -0.000000 0.000000
Spine 19.458585 -4.792720 -3.448884
RightShoulder 2.614358 -28.401638 -10.553060
RightArm 22.555082 -20.392855 59.311611
RightForeArm 4.512449 0.000000 44.702969
RightHand -0.484485 -0.000000 -1.915738
RightHandThumb1 -24.326973 -0.000000 -32.862282
LeftShoulder -17.959797 28.862712 3.866667
LeftArm 58.426071 -38.298949 -62.037626
LeftForeArm 38.796529 -0.000000 50.219083
LeftHand -17.642354 -0.000000 -22.194256
LeftHandThumb1 -26.253704 0.000000 33.147579
Head 18.682398 24.250672 -4.035084
985
root 1.310569 37.384692 4.940429 -12.913540 -13.379104 5.773477
RightUpLeg 13.348162 -0.538448 0.020974
RightLeg 3.771943 -0.000000 -0.000000
RightFoot -13.944909 -14.203304 10.450942
RightToeBase 13.679416 -0.000000 -0.000000
LeftUpLeg -30.233055 8.610035 -3.354103
LeftLeg 54.685009 -0.000000 -0.000000
LeftFoot 10.135539 27.186058 -31.185967
LeftToeBase 0.357815 -0.000000 -0.000000
Spine 19.393437 -4.796295 -3.455937
RightShoulder 2.598676 -28.433901 -10.526978
RightArm 22.564337 -20.377420 59.298491
RightForeArm 4.531394 0.000000 44.645335
RightHand -0.471351 0.000000 -1.923214
RightHandThumb1 -24.326973 -0.000000 -32.862282
LeftShoulder -18.008624 28.928899 3.803555
LeftArm 58.444233 -38.300596 -61.961915
LeftForeArm 38.792541 -0.000000 50.252961
LeftHand -17.686159 -0.000000 -22.203800
LeftHandThumb1 -26.253704 0.000000 33.147579
Head 18.690712 24.203900 -4.060059
986
root 1.308962 37.385352 4.945833 -12.875550 -13.391808 5.788152
RightUpLeg 13.340347 -0.493603 0.017974
RightLeg 3.723719 -0.000000 -0.000000
RightFoot -13.928637 -14.255084 10.473873
RightToeBase 13.601719 -0.000000 -0.000000
LeftUpLeg -30.258012 8.555021 -3.349510
LeftLeg 55.140298 -0.000000 -0.000000
LeftFoot 10.222515 27.076197 -31.166997
LeftToeBase 0.384426 -0.000000 -0.000000
Spine 19.319137 -4.788991 -3.471480
RightShoulder 2.568260 -28.450091 -10.491676
RightArm 22.554084 -20.363013 59.297502
RightForeArm 4.550985 -0.000000 44.593089
RightHand -0.459235 0.000000 -1.889649
RightHandThumb1 -24.326973 -0.000000 -32.862282
LeftShoulder -18.046015 28.938529 3.770422
LeftArm 58.413382 -38.276992 -61.883232
LeftForeArm 38.806232 0.000000 50.280227
LeftHand -17.665865 0.000000 -22.263429
LeftHandThumb1 -26.253704 0.000000 33.147579
Head 18.716982 24.195706 -4.021859
987
root 1.306708 37.385716 4.951904 -12.846926 -13.404455 5.792016
RightUpLeg 13.347099 -0.476989 0.022272
RightLeg 3.664861 -0.000000 -0.000000
RightFoot -13.898234 -14.228011 10.490195
RightToeBase 13.573876 -0.000000 -0.000000
LeftUpLeg -30.287625 8.528503 -3.333820
LeftLeg 55.685284 -0.000000 -0.000000
LeftFoot 10.313443 26.896397 -31.106369
LeftToeBase 0.300903 -0.000000 -0.000000
Spine 19.268401 -4.796406 -3.472317
RightShoulder 2.552572 -28.450880 -10.484671
RightArm 22.539389 -20.363356 59.309424
RightForeArm 4.543048 -0.000000 44.543886
RightHand -0.453830 -0.000000 -1.896461
RightHandThumb1 -24.326973 -0.000000 -32.862282
LeftShoulder -18.094333 28.932365 3.724657
LeftArm 58.367401 -38.250370 -61.796576
LeftForeArm 38.791107 -0.000000 50.310204
LeftHand -17.711231 -0.000000 -22.277757
LeftHandThumb1 -26.253704 0.000000 33.147579
Head 18.731846 24.272824 -3.955376
